<mxfile host="app.diagrams.net" modified="2023-10-25T08:48:34.713Z" agent="Mozilla/5.0 (Windows NT 10.0; Win64; x64) AppleWebKit/537.36 (KHTML, like Gecko) Chrome/118.0.0.0 Safari/537.36 Edg/118.0.2088.61" version="22.0.7" etag="cgVnsCo0SX6i_p0R8ByF" type="github">
  <diagram name="Page-1" id="LkchD_-BrmoxrlKypz8P">
    <mxGraphModel>
      <root>
        <mxCell id="0" />
        <mxCell id="1" parent="0" />
      </root>
    </mxGraphModel>
  </diagram>
</mxfile>
